<svg xmlns="http://www.w3.org/2000/svg" xmlns:xlink="http://www.w3.org/1999/xlink" width="100" height="100" viewBox="0 0 100 100">
  <defs>
    <clipPath id="clip-Tamanho_personalizado_1">
      <rect width="100" height="100"/>
    </clipPath>
  </defs>
  <g id="Tamanho_personalizado_1" data-name="Tamanho personalizado – 1" clip-path="url(#clip-Tamanho_personalizado_1)">
    <path id="Caminho_1206" data-name="Caminho 1206" d="M-428.268,239.576c-3,0-5.932.036-8.858-.009-3.281-.05-4.147-1.26-3.381-4.382.533-2.172,1.721-4.254.34-6.669a3.183,3.183,0,0,1,.923-2.991c1.895-.8,2.086-2.329,2.518-3.891,1.243-4.495,2.519-8.979,3.789-13.488-3.963-.595-4.34-.33-5.16,3.016-.133.544-.8,1.377-1.165,1.349a2.424,2.424,0,0,1-1.72-1.087,4.2,4.2,0,0,1-.136-3.409,4.2,4.2,0,0,1,2.439-2.385,14.206,14.206,0,0,1,4.854-.766q42.057.064,84.114.228c5.369.016,5.661.293,5.664,5.588,0,3.127-.152,6.264.058,9.376.123,1.827.89,3.6,1.238,5.424.2,1.029.594,2.5.094,3.1-1.868,2.228-1.414,4.753-1.361,7.214.059,2.777-1.174,3.927-3.889,3.806-1.939-.09-3.884-.017-5.752-.017-1.811,5.286-4.243,7.288-8.487,7.154-3.858-.121-6.264-2.322-7.562-7.021H-412.06c-2.226,5.476-4.263,7.16-8.468,7.034C-424.353,246.629-426.454,244.744-428.268,239.576Zm80.948-2.981V223.807H-411.07c-6.935,0-13.87-.03-20.8.04-.844.008-2.266.358-2.432.876-1.239,3.822-2.228,7.724-3.371,11.873,3.046,0,5.593.133,8.109-.068a4.294,4.294,0,0,0,2.733-1.455c3.752-4.768,9.6-4.7,13.387.173a3.724,3.724,0,0,0,2.555,1.294q19.925.121,39.851,0a3.725,3.725,0,0,0,2.543-1.3c3.91-4.994,9.536-4.961,13.508.116a3.281,3.281,0,0,0,2.021,1.183C-351.149,236.707-349.3,236.6-347.32,236.6Zm.1-28.253h-14.612V220.6h14.612Zm-49-.082v12.37H-382.5V208.261Zm-17.021.02v12.273h13.707V208.28Zm47.883,12.393V208.292h-13.691v12.381Zm-67.827-.15.8.358a8.6,8.6,0,0,1,.861-1.531,22.509,22.509,0,0,1,3.149-3.292c.432-.331,1.472.127,2.234.226-.213.73-.211,1.692-.69,2.133a8.9,8.9,0,0,1-2.533,1.177l1.037,1.012h11.761V208.114c-4.2,0-7.9-.063-11.59.058a2.477,2.477,0,0,0-1.881,1.254c-1.164,3.665-2.126,7.391-3.153,11.1Zm17.719,18.521a4.748,4.748,0,0,0-4.859-4.484,4.871,4.871,0,0,0-4.614,4.77,4.658,4.658,0,0,0,4.9,4.4,4.569,4.569,0,0,0,3.274-1.377,4.569,4.569,0,0,0,1.3-3.306Zm53.7,4.684a4.511,4.511,0,0,0,3.3-1.282,4.511,4.511,0,0,0,1.358-3.27,4.687,4.687,0,0,0-4.683-4.62,4.732,4.732,0,0,0-4.676,4.645,4.521,4.521,0,0,0,1.383,3.265,4.521,4.521,0,0,0,3.313,1.263Z" transform="translate(442.416 -175.863)" fill="#fff"/>
  </g>
</svg>
