<svg xmlns="http://www.w3.org/2000/svg" xmlns:xlink="http://www.w3.org/1999/xlink" width="100" height="100" viewBox="0 0 100 100">
  <defs>
    <clipPath id="clip-Tamanho_personalizado_1">
      <rect width="100" height="100"/>
    </clipPath>
  </defs>
  <g id="Tamanho_personalizado_1" data-name="Tamanho personalizado – 1" clip-path="url(#clip-Tamanho_personalizado_1)">
    <g id="Grupo_468" data-name="Grupo 468" transform="translate(-872.814 -6528.692)">
      <path id="Caminho_1208" data-name="Caminho 1208" d="M-434.775,222.418c-1.52,0-3,.018-4.48,0-1.659-.025-2.1-.637-1.71-2.216.27-1.1.87-2.152.172-3.373a1.608,1.608,0,0,1,.467-1.513c.958-.4,1.055-1.178,1.274-1.968.629-2.273,1.274-4.541,1.916-6.821-2-.3-2.195-.167-2.61,1.526-.067.275-.4.7-.59.682a1.226,1.226,0,0,1-.87-.549,2.124,2.124,0,0,1,1.165-2.93,7.186,7.186,0,0,1,2.455-.388q21.269.032,42.538.115c2.715.008,2.863.148,2.864,2.826,0,1.581-.077,3.168.029,4.742a23.748,23.748,0,0,0,.626,2.743c.1.52.3,1.264.048,1.565-.945,1.127-.715,2.4-.688,3.648.03,1.4-.594,1.986-1.967,1.924-.98-.044-1.964-.009-2.909-.009-.916,2.671-2.146,3.685-4.292,3.618-1.951-.061-3.168-1.174-3.824-3.551h-21.418c-1.126,2.77-2.156,3.621-4.282,3.557C-432.8,225.985-433.858,225.032-434.775,222.418Zm40.937-1.507v-6.467h-32.24c-3.507,0-7.014-.015-10.521.02-.427,0-1.146.183-1.23.443-.626,1.933-1.127,3.906-1.7,6,1.542,0,2.828.068,4.1-.034a2.172,2.172,0,0,0,1.382-.736c1.9-2.411,4.856-2.375,6.77.087a1.883,1.883,0,0,0,1.292.654q10.076.061,20.153,0a1.884,1.884,0,0,0,1.286-.657c1.978-2.525,4.822-2.509,6.831.059a1.659,1.659,0,0,0,1.022.6C-395.774,220.968-394.84,220.911-393.838,220.911Zm.049-14.288h-7.389v6.2h7.389Zm-24.779-.042v6.256h6.94v-6.256Zm-8.61.01V212.8h6.93v-6.208Zm24.215,6.268V206.6h-6.924v6.261Zm-34.3-.076.4.182a4.352,4.352,0,0,1,.435-.774,11.379,11.379,0,0,1,1.593-1.665c.218-.168.744.064,1.13.114-.108.369-.107.856-.349,1.079a4.5,4.5,0,0,1-1.281.6l.524.512h5.948v-6.319c-2.122,0-3.993-.032-5.861.03a1.252,1.252,0,0,0-.953.634C-436.258,209.025-436.744,210.909-437.263,212.784Zm8.961,9.367a2.4,2.4,0,0,0-2.457-2.268,2.463,2.463,0,0,0-2.333,2.412,2.356,2.356,0,0,0,2.476,2.225A2.309,2.309,0,0,0-428.3,222.15Zm27.155,2.369a2.281,2.281,0,0,0,2.357-2.3,2.371,2.371,0,0,0-2.368-2.337,2.393,2.393,0,0,0-2.365,2.349A2.286,2.286,0,0,0-401.147,224.519Z" transform="translate(1315.245 6378.799)" fill="#fff"/>
      <g id="Grupo_467" data-name="Grupo 467" transform="translate(928.534 6552.692)">
        <path id="Caminho_513" data-name="Caminho 513" d="M-1144.534,500.612c-.314,0-.564,0-.813,0-.368-.007-.659-.138-.659-.555s.282-.561.652-.567q1.116-.016,2.231-.017,8.57.005,17.14.015c.109,0,.218,0,.327,0,.357.016.608.191.614.555s-.238.552-.6.564c-.27.009-.541,0-.883,0v.734q0,15.753.01,31.506c0,1-.091,1.414-1.392,1.4-5.06-.056-10.121-.026-15.181-.018a1.222,1.222,0,0,1-1.223-.534,2.166,2.166,0,0,1-.215-.981q-.018-9.849-.009-19.7v-12.4Zm16.869,32.478V500.7h-15.7v32.4Z" transform="translate(1157.148 -499.472)" fill="#fff"/>
        <path id="Caminho_514" data-name="Caminho 514" d="M-946.792,560.512V531.372h-.656l-8.652-.022c-.145,0-.334.047-.425-.026-.18-.142-.4-.343-.422-.537-.014-.161.215-.383.388-.506.111-.079.316-.034.478-.034q5.333,0,10.666,0c.145,0,.334-.047.425.025.18.143.422.356.42.538s-.246.4-.438.514a1.709,1.709,0,0,1-.646.058v.715q0,13.931,0,27.862a4.492,4.492,0,0,1-.037.759,1,1,0,0,1-1.04.91c-3.174.007-6.349,0-9.523.005-.393,0-.719-.12-.712-.556.007-.465.358-.566.767-.565q4.353.007,8.707,0Z" transform="translate(988.723 -526.875)" fill="#fff"/>
        <path id="Caminho_515" data-name="Caminho 515" d="M-1246.9,568.59c-.237,0-.4,0-.557,0-.387.005-.709-.11-.719-.553s.3-.566.7-.57c.67-.007,1.341-.035,2.011-.037q3.916-.007,7.832,0c.18,0,.413-.041.527.053a.978.978,0,0,1,.4.606c0,.169-.274.366-.465.5-.1.068-.282.017-.427.017h-8.138c-.01.234-.026.426-.026.619q0,11.857,0,23.714c0,.712,0,.713.725.713q3.617,0,7.234,0c.18,0,.409-.044.528.046a.9.9,0,0,1,.378.565c0,.158-.24.367-.421.469a1.188,1.188,0,0,1-.535.034q-3.644,0-7.288,0a1.587,1.587,0,0,1-1.751-1.735q0-11.83,0-23.66Z" transform="translate(1248.179 -560.012)" fill="#fff"/>
        <path id="Caminho_516" data-name="Caminho 516" d="M-911.646,576.889c0,.525-.007,1.05,0,1.574.008.493-.212.736-.716.733-1.086-.008-2.171-.006-3.257,0a.6.6,0,0,1-.682-.657c-.008-1.1,0-2.207,0-3.311,0-.474.259-.685.719-.684,1.067,0,2.135-.007,3.2,0,.555.005.729.2.735.769.005.525,0,1.049,0,1.574Zm-1.138-1.17h-2.335v2.336h2.335Z" transform="translate(952.494 -566.354)" fill="#fff"/>
        <path id="Caminho_517" data-name="Caminho 517" d="M-913.993,637.125c-.543,0-1.086,0-1.628,0a.593.593,0,0,1-.677-.661c-.007-1.1,0-2.207,0-3.31a.6.6,0,0,1,.67-.675q1.655-.007,3.311,0c.469,0,.682.253.679.721q-.012,1.6,0,3.2c0,.5-.22.735-.722.725C-912.908,637.117-913.451,637.125-913.993,637.125ZM-912.8,636v-2.352h-2.317V636Z" transform="translate(952.494 -617.971)" fill="#fff"/>
        <path id="Caminho_518" data-name="Caminho 518" d="M-913.949,688.858c.543,0,1.086,0,1.629,0a.584.584,0,0,1,.669.662c0,1.031-.005,2.063,0,3.094,0,.443-.206.692-.646.7q-1.682.016-3.365,0a.587.587,0,0,1-.643-.646c-.006-1.068-.01-2.135,0-3.2a.554.554,0,0,1,.617-.6Zm-1.211,3.324c.735,0,1.419.012,2.1-.013a.408.408,0,0,0,.283-.28c.026-.627.013-1.255.013-1.89h-2.4Z" transform="translate(952.502 -668.204)" fill="#fff"/>
        <path id="Caminho_519" data-name="Caminho 519" d="M-913.985,739.886c.543,0,1.086.007,1.629,0a.605.605,0,0,1,.7.687q0,1.548,0,3.1a.6.6,0,0,1-.663.678c-1.1,0-2.208,0-3.313,0a.6.6,0,0,1-.678-.667c-.006-1.05-.008-2.1,0-3.15a.591.591,0,0,1,.691-.646C-915.071,739.894-914.528,739.887-913.985,739.886Zm1.188,3.343v-2.2h-2.381c0,.656-.013,1.271.013,1.884a.413.413,0,0,0,.267.3C-914.214,743.242-913.529,743.23-912.8,743.23Z" transform="translate(952.502 -713.667)" fill="#fff"/>
        <path id="Caminho_520" data-name="Caminho 520" d="M-1215.7,600.186c.434,0,.868.011,1.3,0a.637.637,0,0,1,.74.721c0,.886-.01,1.772-.012,2.658a.618.618,0,0,1-.691.709h-2.713a.615.615,0,0,1-.7-.7c0-.9,0-1.809,0-2.713,0-.471.245-.688.716-.677C-1216.606,600.194-1216.153,600.186-1215.7,600.186Zm.863,2.94v-1.8h-1.77v1.8Z" transform="translate(1221.091 -589.2)" fill="#fff"/>
        <path id="Caminho_521" data-name="Caminho 521" d="M-1215.759,653.629c-.47,0-.941,0-1.411,0a.562.562,0,0,1-.62-.6q-.02-1.438,0-2.876a.563.563,0,0,1,.623-.6q1.411-.013,2.822,0a.614.614,0,0,1,.667.687c0,.886,0,1.773-.016,2.659-.008.556-.2.733-.762.74C-1214.891,653.634-1215.325,653.629-1215.759,653.629Zm-.875-1.136h1.778v-1.8h-1.778Z" transform="translate(1221.112 -633.173)" fill="#fff"/>
        <path id="Caminho_522" data-name="Caminho 522" d="M-1215.755,745.71c-.434,0-.868-.009-1.3,0-.471.012-.712-.206-.714-.677,0-.9,0-1.808,0-2.712,0-.472.232-.69.7-.686q1.356.012,2.712,0a.619.619,0,0,1,.7.7c0,.868,0,1.735-.015,2.6-.008.6-.181.762-.784.768C-1214.887,745.714-1215.321,745.71-1215.755,745.71Zm-.852-2.942v1.8h1.773v-1.8Z" transform="translate(1221.087 -715.229)" fill="#fff"/>
        <path id="Caminho_523" data-name="Caminho 523" d="M-1215.748,698.985c.452,0,.905.01,1.358,0a.622.622,0,0,1,.726.68c.012.85,0,1.7-.012,2.552a.605.605,0,0,1-.672.675c-.923,0-1.847.006-2.77,0a.6.6,0,0,1-.66-.686c0-.851,0-1.7,0-2.552a.592.592,0,0,1,.671-.666C-1216.653,698.989-1216.2,698.985-1215.748,698.985Zm.912,1.133h-1.82c0,.477-.015.926.012,1.373a.372.372,0,0,0,.246.264c.516.025,1.035.012,1.563.012Z" transform="translate(1221.095 -677.225)" fill="#fff"/>
        <path id="Caminho_524" data-name="Caminho 524" d="M-955.522,635.988v-2.42a2.759,2.759,0,0,1-.87-.021.932.932,0,0,1-.56-.525c-.074-.345.208-.559.566-.571.47-.016.942-.019,1.412,0a.566.566,0,0,1,.592.633q0,1.684-.007,3.368a.564.564,0,0,1-.632.639c-.434,0-.869,0-1.3,0-.389,0-.651-.177-.643-.568s.285-.553.67-.539C-956.049,636-955.8,635.988-955.522,635.988Z" transform="translate(988.724 -617.938)" fill="#fff"/>
        <path id="Caminho_525" data-name="Caminho 525" d="M-955.526,578.1V575.68h-.76c-.394,0-.7-.15-.7-.581.007-.4.3-.548.672-.549.416,0,.833-.005,1.249,0a.6.6,0,0,1,.667.675q-.007,1.657-.006,3.313a.582.582,0,0,1-.668.661c-.434,0-.869,0-1.3,0a.535.535,0,0,1-.609-.548.524.524,0,0,1,.6-.554Z" transform="translate(988.736 -566.36)" fill="#fff"/>
        <path id="Caminho_526" data-name="Caminho 526" d="M-955.543,692.195V689.97c-.29,0-.573.005-.855,0a.536.536,0,0,1-.594-.565c.005-.364.248-.54.615-.539.453,0,.906,0,1.358,0,.435,0,.616.246.615.656,0,1.032-.012,2.065,0,3.1a.612.612,0,0,1-.694.7c-.416,0-.833.006-1.25,0-.377-.007-.648-.185-.641-.58.006-.367.268-.533.622-.542C-956.1,692.189-955.837,692.195-955.543,692.195Z" transform="translate(988.748 -668.212)" fill="#fff"/>
        <path id="Caminho_527" data-name="Caminho 527" d="M-955.54,741.008a2.78,2.78,0,0,1-.867-.02.914.914,0,0,1-.556-.518c-.066-.338.2-.559.569-.562.453,0,.906,0,1.359,0a.567.567,0,0,1,.64.637c0,1.069,0,2.139-.009,3.208a.557.557,0,0,1-.61.611c-.453.012-.906.008-1.359,0a.543.543,0,0,1-.609-.555c0-.365.234-.551.6-.553.268,0,.537,0,.84,0Z" transform="translate(988.736 -713.688)" fill="#fff"/>
        <path id="Caminho_528" data-name="Caminho 528" d="M-1165.547,601.284v1.859c.213,0,.421-.006.629,0,.353.012.606.178.616.547s-.227.549-.586.573l-.054,0c-1.836.007-1.79.154-1.769-1.639.007-.579,0-1.158,0-1.737a.623.623,0,0,1,.737-.712c.416.015.832,0,1.248.005.359,0,.6.167.6.548s-.228.548-.592.552C-1164.969,601.286-1165.221,601.284-1165.547,601.284Z" transform="translate(1175.6 -589.196)" fill="#fff"/>
        <path id="Caminho_529" data-name="Caminho 529" d="M-1165.547,650.544v1.868c.32,0,.606-.01.889,0,.345.016.586.223.511.55a.783.783,0,0,1-.485.519,5.316,5.316,0,0,1-1.565,0,.794.794,0,0,1-.49-.579c-.053-.956-.03-1.916-.019-2.875a.549.549,0,0,1,.573-.594,5.929,5.929,0,0,1,1.3.022c.2.038.516.343.5.5a.943.943,0,0,1-.494.575C-1165.012,650.619-1165.284,650.544-1165.547,650.544Z" transform="translate(1175.603 -633.057)" fill="#fff"/>
        <path id="Caminho_530" data-name="Caminho 530" d="M-1165.508,700.1v1.688c.276,0,.54,0,.8,0,.351.007.61.148.616.533.006.409-.26.572-.633.58-.434.009-.868.007-1.3,0a.586.586,0,0,1-.646-.641c-.01-.868-.009-1.736,0-2.6A.589.589,0,0,1-1166,699c.434.008.868,0,1.3,0,.358,0,.6.161.606.541s-.22.553-.585.558C-1164.94,700.106-1165.206,700.1-1165.508,700.1Z" transform="translate(1175.564 -677.241)" fill="#fff"/>
        <path id="Caminho_531" data-name="Caminho 531" d="M-1165.543,742.611v1.861a1.778,1.778,0,0,1,.685.018,2.523,2.523,0,0,1,.572.524c-.182.186-.341.489-.552.532a3.333,3.333,0,0,1-1.294,0,.8.8,0,0,1-.537-.529c-.056-.975-.036-1.955-.023-2.932a.536.536,0,0,1,.585-.577,5.806,5.806,0,0,1,1.244.023c.219.046.387.332.579.509a2.59,2.59,0,0,1-.553.553C-1165.006,742.684-1165.261,742.611-1165.543,742.611Z" transform="translate(1175.591 -715.094)" fill="#fff"/>
        <path id="Caminho_532" data-name="Caminho 532" d="M-1077.051,732.425h-5.017v.606c0,1.578,0,3.155,0,4.733,0,.386-.085.727-.525.739-.465.013-.588-.322-.587-.739q.009-2.883,0-5.766c0-.505.232-.734.723-.734,1.94,0,3.881-.005,5.821,0a.651.651,0,0,1,.739.736q-.01,2.828-.027,5.656c0,.144.028.326-.046.423-.129.171-.335.411-.493.4a.909.909,0,0,1-.543-.41c-.088-.127-.045-.35-.045-.53C-1077.052,735.859-1077.051,734.174-1077.051,732.425Z" transform="translate(1101.171 -705.987)" fill="#fff"/>
        <path id="Caminho_533" data-name="Caminho 533" d="M-1036.411,596.807c.615,0,1.231,0,1.846,0,.481,0,.679.282.677.727q-.006,1.737-.028,3.474c-.008.646-.165.81-.8.814q-1.711.011-3.421,0c-.61,0-.79-.176-.794-.769q-.013-1.738,0-3.476c0-.606.169-.763.784-.771C-1037.57,596.8-1036.991,596.807-1036.411,596.807Zm-1.361,1.146v2.7h2.7v-2.7Z" transform="translate(1061.757 -586.19)" fill="#fff"/>
        <path id="Caminho_534" data-name="Caminho 534" d="M-1036.4,533.683c.6,0,1.195,0,1.792,0a.641.641,0,0,1,.726.694c.007,1.175-.016,2.351-.033,3.527-.009.653-.149.794-.811.8q-1.71.01-3.421,0c-.613,0-.781-.168-.785-.772q-.012-1.738,0-3.475c0-.6.181-.761.793-.769C-1037.561,533.676-1036.981,533.683-1036.4,533.683Zm1.339,1.164h-2.7v2.7h2.7Z" transform="translate(1061.757 -529.95)" fill="#fff"/>
        <path id="Caminho_535" data-name="Caminho 535" d="M-1036.4,663.105c-.6,0-1.2-.01-1.793,0-.475.011-.717-.207-.719-.676,0-1.214,0-2.427,0-3.641a.611.611,0,0,1,.7-.7q1.82.012,3.641,0a.63.63,0,0,1,.71.7c.006,1.176-.014,2.353-.031,3.529-.009.647-.153.78-.82.784C-1035.273,663.108-1035.834,663.105-1036.4,663.105Zm-1.355-1.138h2.7v-2.732h-2.7Z" transform="translate(1061.731 -640.794)" fill="#fff"/>
        <path id="Caminho_536" data-name="Caminho 536" d="M-1102.046,536.2c0,.6-.011,1.195,0,1.792.011.476-.2.711-.675.711-1.213,0-2.425,0-3.638,0-.5,0-.71-.255-.706-.747q.015-1.764,0-3.529c0-.5.217-.744.713-.744,1.195,0,2.389-.008,3.584,0,.558.005.72.2.721.775s0,1.158,0,1.737Zm-3.865,1.355h2.722v-2.709h-2.722Z" transform="translate(1122.45 -529.951)" fill="#fff"/>
        <path id="Caminho_537" data-name="Caminho 537" d="M-1102.033,599.292c0,.634,0,1.267,0,1.9a.571.571,0,0,1-.626.652q-1.873.016-3.746,0c-.442,0-.645-.26-.643-.7.005-1.213,0-2.425,0-3.638a.59.59,0,0,1,.663-.673h3.693c.482,0,.675.255.665.722-.013.579,0,1.158,0,1.737Zm-3.863-1.314v2.7h2.731v-2.7Z" transform="translate(1122.437 -586.216)" fill="#fff"/>
        <path id="Caminho_538" data-name="Caminho 538" d="M-1102.019,660.622c0,.6-.009,1.2,0,1.792.01.508-.23.717-.729.712-1.195-.011-2.39-.008-3.585,0a.609.609,0,0,1-.7-.691q0-1.819,0-3.639c0-.437.2-.681.656-.682,1.231,0,2.462,0,3.693,0,.485,0,.677.255.671.718-.009.6,0,1.195,0,1.792Zm-3.871,1.36h2.733v-2.724h-2.733Z" transform="translate(1122.423 -640.812)" fill="#fff"/>
      </g>
    </g>
  </g>
</svg>
