<svg xmlns="http://www.w3.org/2000/svg" xmlns:xlink="http://www.w3.org/1999/xlink" width="100" height="100" viewBox="0 0 100 100">
  <defs>
    <clipPath id="clip-Tamanho_personalizado_1">
      <rect width="100" height="100"/>
    </clipPath>
  </defs>
  <g id="Tamanho_personalizado_1" data-name="Tamanho personalizado – 1" clip-path="url(#clip-Tamanho_personalizado_1)">
    <g id="Grupo_1" data-name="Grupo 1" transform="translate(32.686 11.813)">
      <path id="Caminho_1207" data-name="Caminho 1207" d="M-435.482,220.554c-1.358,0-2.682.016-4,0-1.483-.023-1.874-.57-1.528-1.98.241-.982.778-1.923.154-3.014a1.437,1.437,0,0,1,.417-1.352c.857-.361.943-1.053,1.138-1.759.562-2.031,1.139-4.059,1.712-6.1-1.792-.269-1.962-.149-2.332,1.364-.06.246-.362.622-.527.61a1.1,1.1,0,0,1-.778-.491,1.9,1.9,0,0,1,1.041-2.619,6.421,6.421,0,0,1,2.194-.346q19.01.029,38.02.1c2.427.007,2.559.132,2.56,2.526,0,1.413-.069,2.831.026,4.238a21.227,21.227,0,0,0,.56,2.451c.089.465.268,1.13.043,1.4-.844,1.007-.639,2.149-.615,3.261.027,1.255-.531,1.775-1.758,1.72-.876-.039-1.756-.008-2.6-.008-.819,2.387-1.918,3.294-3.836,3.234-1.744-.055-2.831-1.049-3.418-3.174h-19.143c-1.006,2.476-1.927,3.236-3.827,3.179C-433.712,223.742-434.662,222.89-435.482,220.554Zm36.589-1.347v-5.78h-28.815c-3.135,0-6.269-.014-9.4.018-.382,0-1.024.164-1.1.4-.56,1.727-1.007,3.491-1.524,5.367,1.379,0,2.528.06,3.665-.031a1.941,1.941,0,0,0,1.236-.658,3.619,3.619,0,0,1,6.051.078,1.683,1.683,0,0,0,1.155.585q9.006.055,18.013,0a1.684,1.684,0,0,0,1.15-.587c1.768-2.257,4.31-2.243,6.106.053a1.483,1.483,0,0,0,.914.535C-400.623,219.257-399.789,219.207-398.892,219.207Zm.044-12.77h-6.6v5.541h6.6ZM-421,206.4v5.591h6.2V206.4Zm-7.7.009v5.548h6.194v-5.548Zm21.644,5.6v-5.6h-6.189v5.6Zm-30.658-.068.362.163a3.888,3.888,0,0,1,.389-.692,10.175,10.175,0,0,1,1.423-1.488c.2-.15.665.058,1.01.1-.1.33-.1.765-.312.964a4.023,4.023,0,0,1-1.145.532l.469.457h5.316v-5.648c-1.9,0-3.569-.028-5.239.026a1.12,1.12,0,0,0-.852.567C-436.807,208.583-437.242,210.267-437.706,211.942Zm8.009,8.372a2.145,2.145,0,0,0-2.2-2.027,2.2,2.2,0,0,0-2.085,2.156,2.106,2.106,0,0,0,2.213,1.989A2.063,2.063,0,0,0-429.7,220.314Zm24.271,2.117a2.039,2.039,0,0,0,2.107-2.057,2.119,2.119,0,0,0-2.117-2.088,2.139,2.139,0,0,0-2.114,2.1A2.043,2.043,0,0,0-405.426,222.431Z" transform="translate(408.745 -166.744)" fill="#fff"/>
      <path id="Caminho_1210" data-name="Caminho 1210" d="M-402.625,220.554c1.358,0,2.681.016,4,0,1.483-.023,1.874-.57,1.528-1.98-.241-.982-.778-1.923-.154-3.014a1.437,1.437,0,0,0-.417-1.352c-.857-.361-.943-1.053-1.138-1.759-.562-2.031-1.139-4.059-1.712-6.1,1.792-.269,1.962-.149,2.332,1.364.06.246.362.622.527.61a1.1,1.1,0,0,0,.778-.491,1.9,1.9,0,0,0-1.041-2.619,6.421,6.421,0,0,0-2.194-.346q-19.01.029-38.02.1c-2.427.007-2.559.132-2.56,2.526,0,1.413.069,2.831-.026,4.238a21.22,21.22,0,0,1-.56,2.451c-.088.465-.268,1.13-.043,1.4.844,1.007.639,2.149.615,3.261-.027,1.255.531,1.775,1.758,1.72.876-.039,1.756-.008,2.6-.008.819,2.387,1.918,3.294,3.836,3.234,1.744-.055,2.831-1.049,3.418-3.174h19.143c1.006,2.476,1.927,3.236,3.827,3.179C-404.395,223.742-403.445,222.89-402.625,220.554Zm-36.589-1.347v-5.78H-410.4c3.135,0,6.269-.014,9.4.018.382,0,1.024.164,1.1.4.56,1.727,1.007,3.491,1.524,5.367-1.379,0-2.528.06-3.665-.031a1.941,1.941,0,0,1-1.235-.658,3.619,3.619,0,0,0-6.051.078,1.683,1.683,0,0,1-1.155.585q-9.006.055-18.013,0a1.684,1.684,0,0,1-1.15-.587c-1.768-2.257-4.31-2.243-6.106.053a1.483,1.483,0,0,1-.914.535C-437.484,219.257-438.319,219.207-439.215,219.207Zm-.044-12.77h6.6v5.541h-6.6Zm22.147-.037v5.591h-6.2V206.4Zm7.7.009v5.549h-6.194v-5.549Zm-21.643,5.6v-5.6h6.188v5.6Zm30.658-.068-.362.163a3.888,3.888,0,0,0-.389-.692,10.175,10.175,0,0,0-1.423-1.488c-.2-.15-.665.057-1.01.1.1.33.1.765.312.964a4.024,4.024,0,0,0,1.145.532l-.469.457h-5.316v-5.648c1.9,0,3.569-.028,5.239.026a1.119,1.119,0,0,1,.852.567C-401.3,208.583-400.865,210.267-400.4,211.942Zm-8.009,8.372a2.145,2.145,0,0,1,2.2-2.027,2.2,2.2,0,0,1,2.085,2.156,2.106,2.106,0,0,1-2.213,1.989A2.064,2.064,0,0,1-408.411,220.314Zm-24.271,2.117a2.039,2.039,0,0,1-2.107-2.057,2.119,2.119,0,0,1,2.117-2.088,2.139,2.139,0,0,1,2.114,2.1A2.043,2.043,0,0,1-432.681,222.431Z" transform="translate(463.086 -185.677)" fill="#fff"/>
    </g>
  </g>
</svg>
