<svg xmlns="http://www.w3.org/2000/svg" width="529.088" height="216.772" viewBox="0 0 529.088 216.772">
  <g id="Grupo_430" data-name="Grupo 430" transform="translate(-54.912 -147.673)">
    <path id="Caminho_1" data-name="Caminho 1" d="M623.611,218.22V207.692a6.406,6.406,0,0,0-1.726-4.469,5.843,5.843,0,0,0-8.606,0,6.405,6.405,0,0,0-1.721,4.469V218.22a6.4,6.4,0,0,0,1.721,4.466,5.843,5.843,0,0,0,8.606,0,6.4,6.4,0,0,0,1.726-4.466m9.067,1.124a12.038,12.038,0,0,1-4.7,9.732,15.907,15.907,0,0,1-10.394,3.573,16.074,16.074,0,0,1-10.394-3.573,12.164,12.164,0,0,1-4.7-9.732V206.5a11.852,11.852,0,0,1,4.7-9.666,16.892,16.892,0,0,1,20.789,0,11.852,11.852,0,0,1,4.7,9.666ZM359.706,328.274H278.565V227.731q0-17.082,14.058-27.4,12.452-9.25,30.251-9.253h36.831v22.244H319.137a15.287,15.287,0,0,0-11.388,4.983,16.147,16.147,0,0,0-4.805,11.564v14.24h56.762v22.241H302.943V306.03h56.762Zm84.4-98.584v-1.959a12.933,12.933,0,0,0-4.925-10.23,16.561,16.561,0,0,0-11.007-4.182H411.9v30.787H428a16.873,16.873,0,0,0,11.272-4.1A12.942,12.942,0,0,0,444.1,229.69m33.979,98.584H453.127L435.31,265.961a67.027,67.027,0,0,1-7.2.385H411.9v61.927H387.518V191.249l40.568-.175q16.547,0,28.3,9.964a33.4,33.4,0,0,1,12.456,26.693v1.959q0,14.945-11.392,25.622Zm84.3-39.539V230.612a18.259,18.259,0,0,0-4.546-12.477,14.791,14.791,0,0,0-11.654-5.173h-9.432a14.751,14.751,0,0,0-11.559,5.26,18.126,18.126,0,0,0-4.633,12.389v58.123a18.141,18.141,0,0,0,4.633,12.393,14.751,14.751,0,0,0,11.559,5.26h9.432a14.793,14.793,0,0,0,11.654-5.173,18.255,18.255,0,0,0,4.546-12.48m24.372,3.059a33.41,33.41,0,0,1-12.456,26.7q-11.743,10.136-28.116,10.139h-9.432q-16.373,0-28.116-10.139a33.409,33.409,0,0,1-12.452-26.7V227.375a33.412,33.412,0,0,1,12.452-26.693q11.575-9.963,28.116-9.964h9.432q16.547,0,28.116,9.964a33.413,33.413,0,0,1,12.456,26.693Z" transform="translate(-62.012 -11.935)" fill="#ffffff"/>
    <path id="Caminho_2" data-name="Caminho 2" d="M76.347,147.673v25.016H169.3L54.912,364.445H206.33V338.131H105.64L216.266,147.673Z" fill="#FFFFFF"/>
    <path id="Caminho_3" data-name="Caminho 3" d="M279.226,413.319h9.834v2.334h-7.185v5.41h6.87V423.4h-6.87v8.431h-2.649Zm24.587,12.306h-9.652a4.427,4.427,0,0,0,4.458,4.508,7.992,7.992,0,0,0,4.161-1.354v2.5a10.4,10.4,0,0,1-4.27.875c-4.8,0-7-2.918-7-7.321,0-4,2.516-6.842,6.334-6.842C302.357,417.985,303.813,421.275,303.813,425.625Zm-2.649-1.858c0-2.068-1.221-3.765-3.367-3.765-2.443,0-3.45,2.019-3.636,3.765Zm6.158-8.483h2.814v-2.814h-2.814Zm.161,16.546h2.495V418.3h-2.495Zm9.445-11.429h-.053v-2.1H314.54V431.83h2.492v-6.153c0-3.395,1.459-5.515,3.685-5.515a3.68,3.68,0,0,1,1.379.238v-2.229a7.038,7.038,0,0,0-1.645-.186A4.114,4.114,0,0,0,316.927,420.4Zm18.459,8.777a20.589,20.589,0,0,0,.108,2.652h-2.334v-1.75h-.053a5.016,5.016,0,0,1-4.189,2.068c-2.919,0-4.959-1.274-4.959-4.217,0-3.395,3.713-4.455,6.282-4.455.984,0,1.673,0,2.653.052,0-2.334-.851-3.528-3.339-3.528a6.371,6.371,0,0,0-3.927,1.379l-.133-2.12a8.61,8.61,0,0,1,4.455-1.274c3.871,0,5.435,1.911,5.435,5.6Zm-2.491-3.794c-.529,0-1.061-.053-1.589-.053-1.354,0-4.7.213-4.7,2.6a2.385,2.385,0,0,0,2.523,2.2,3.414,3.414,0,0,0,3.763-3.552Zm23.562-13.446h2.495V431.83h-2.39v-1.911h-.053a5.426,5.426,0,0,1-4.612,2.23c-4.088,0-5.809-3.636-5.809-7.321,0-3.633,1.911-6.842,5.834-6.842a4.821,4.821,0,0,1,4.483,2.177h.053Zm0,13.156c0-2.517-1.3-5.092-4-5.092s-3.765,2.545-3.713,5.011c-.052,2.125,1.06,5.121,3.738,5.121C355.291,430.133,356.457,427.347,356.457,425.094Zm18.146.531h-9.652a4.427,4.427,0,0,0,4.456,4.508,7.975,7.975,0,0,0,4.161-1.354v2.5a10.373,10.373,0,0,1-4.269.875c-4.8,0-7-2.918-7-7.321,0-4,2.516-6.842,6.335-6.842C373.144,417.985,374.6,421.275,374.6,425.625Zm-2.652-1.858c0-2.068-1.218-3.765-3.37-3.765-2.436,0-3.447,2.019-3.63,3.765Zm22.447,6.046a7.242,7.242,0,0,1,.133-14.479,7.4,7.4,0,0,1,3.818,1.036l.214-2.576A10.248,10.248,0,0,0,394.4,413c-5.648,0-9.785,3.791-9.785,9.492,0,5.887,3.9,9.652,9.76,9.652a11.626,11.626,0,0,0,4.217-.661l-.161-2.576A9.112,9.112,0,0,1,394.4,429.812Zm17.666-.635a21.2,21.2,0,0,0,.108,2.652h-2.331v-1.75h-.056a5.007,5.007,0,0,1-4.185,2.068c-2.918,0-4.959-1.274-4.959-4.217,0-3.395,3.713-4.455,6.282-4.455.984,0,1.673,0,2.653.052,0-2.334-.851-3.528-3.339-3.528a6.373,6.373,0,0,0-3.927,1.379l-.133-2.12a8.61,8.61,0,0,1,4.455-1.274c3.871,0,5.432,1.911,5.432,5.6Zm-2.488-3.794c-.532,0-1.064-.053-1.589-.053-1.354,0-4.7.213-4.7,2.6a2.384,2.384,0,0,0,2.52,2.2,3.415,3.415,0,0,0,3.765-3.552Zm7.034,6.446h2.5V411.937h-2.5Zm12.84.318a7.632,7.632,0,0,0,3.129-.557l-.186-2.225a5.237,5.237,0,0,1-2.681.766c-3.206,0-4.5-2.649-4.5-5.064,0-2.572,1.564-5.067,4.346-5.067a7.194,7.194,0,0,1,2.705.584l.21-2.068a9.365,9.365,0,0,0-3.02-.532c-4.136,0-6.894,2.972-6.894,7.083a6.833,6.833,0,0,0,5.645,6.947l-1.565,2.1.455.5a3.219,3.219,0,0,1,1.088-.213,1.083,1.083,0,0,1,1.218,1.032c0,.955-.826,1.218-1.484,1.218a4.073,4.073,0,0,1-1.726-.4l-.476.9a4.617,4.617,0,0,0,2.226.556c1.564,0,3.475-.661,3.475-2.439a2,2,0,0,0-2.2-1.935,2.439,2.439,0,0,0-.794.133l-.056-.056.98-1.271Zm16.526-2.97a21.692,21.692,0,0,0,.1,2.652H443.75v-1.75H443.7a5.022,5.022,0,0,1-4.19,2.068c-2.918,0-4.959-1.274-4.959-4.217,0-3.395,3.71-4.455,6.286-4.455.979,0,1.669,0,2.649.052,0-2.334-.851-3.528-3.342-3.528a6.367,6.367,0,0,0-3.923,1.379l-.133-2.12a8.6,8.6,0,0,1,4.451-1.274c3.874,0,5.439,1.911,5.439,5.6Zm-2.492-3.794c-.528,0-1.064-.053-1.592-.053-1.354,0-4.693.213-4.693,2.6a2.386,2.386,0,0,0,2.52,2.2,3.415,3.415,0,0,0,3.765-3.552Zm16.188-13.446h2.492V431.83h-2.391v-1.911h-.052a5.427,5.427,0,0,1-4.612,2.23c-4.085,0-5.81-3.636-5.81-7.321,0-3.633,1.911-6.842,5.838-6.842a4.823,4.823,0,0,1,4.479,2.177h.056Zm0,13.156c0-2.517-1.3-5.092-4.008-5.092s-3.765,2.545-3.713,5.011c-.053,2.125,1.06,5.121,3.741,5.121C458.5,430.133,459.672,427.347,459.672,425.094Zm19.6-.025a6.885,6.885,0,1,1-13.764,0c0-4.112,2.758-7.084,6.894-7.084C476.518,417.985,479.276,420.957,479.276,425.068Zm-2.653,0c0-2.576-1.564-5.067-4.217-5.067-2.677,0-4.242,2.491-4.242,5.067,0,2.412,1.3,5.064,4.242,5.064C475.325,430.133,476.623,427.48,476.623,425.068Zm7.434-3.421c0-1.117,1.113-1.645,2.383-1.645a7.241,7.241,0,0,1,2.629.689l.213-2.177a10.472,10.472,0,0,0-3.1-.528c-2.677,0-4.774,1.354-4.774,4.164,0,3.79,5.862,3.58,5.862,6.044,0,1.459-1.407,1.939-2.551,1.939a6.69,6.69,0,0,1-3.1-.955l-.137,2.225a7.752,7.752,0,0,0,3.716.742c2.415,0,4.722-1.323,4.722-4.214C489.919,423.607,484.057,424.4,484.057,421.647Zm27.671,3.978h-9.656a4.426,4.426,0,0,0,4.455,4.508,7.975,7.975,0,0,0,4.161-1.354v2.5a10.373,10.373,0,0,1-4.269.875c-4.8,0-7-2.918-7-7.321,0-4,2.52-6.842,6.338-6.842C510.268,417.985,511.728,421.275,511.728,425.625Zm-2.653-1.858c0-2.068-1.221-3.765-3.37-3.765-2.439,0-3.447,2.019-3.633,3.765Zm22.26-10.448,7.822,18.51H536.27l-1.883-4.665h-9.072l-1.883,4.665h-2.782l7.9-18.51Zm2.2,11.668-3.682-9.173-3.689,9.173Zm14.119,5.145c-3.209,0-4.508-2.649-4.508-5.064,0-2.572,1.565-5.067,4.346-5.067a7.234,7.234,0,0,1,2.709.584l.21-2.068a9.372,9.372,0,0,0-3.02-.532c-4.137,0-6.9,2.972-6.9,7.083a6.841,6.841,0,0,0,6.9,7.08,7.611,7.611,0,0,0,3.125-.557l-.186-2.225A5.22,5.22,0,0,1,547.651,430.132Zm17.137-4.507h-9.653a4.424,4.424,0,0,0,4.456,4.508,7.982,7.982,0,0,0,4.164-1.354v2.5a10.394,10.394,0,0,1-4.273.875c-4.8,0-7-2.918-7-7.321,0-4,2.523-6.842,6.338-6.842C563.332,417.985,564.788,421.275,564.788,425.625Zm-2.653-1.858c0-2.068-1.214-3.765-3.363-3.765-2.439,0-3.451,2.019-3.637,3.765Zm7.438-2.12c0-1.117,1.109-1.645,2.384-1.645a7.241,7.241,0,0,1,2.625.689l.213-2.177a10.44,10.44,0,0,0-3.1-.528c-2.674,0-4.77,1.354-4.77,4.164,0,3.79,5.859,3.58,5.859,6.044,0,1.459-1.407,1.939-2.548,1.939a6.683,6.683,0,0,1-3.1-.955L567,431.4a7.746,7.746,0,0,0,3.717.742c2.408,0,4.717-1.323,4.717-4.214C575.431,423.607,569.572,424.4,569.572,421.647Zm10.323,0c0-1.117,1.109-1.645,2.383-1.645a7.241,7.241,0,0,1,2.625.689l.214-2.177a10.461,10.461,0,0,0-3.1-.528c-2.677,0-4.77,1.354-4.77,4.164,0,3.79,5.858,3.58,5.858,6.044,0,1.459-1.406,1.939-2.548,1.939a6.705,6.705,0,0,1-3.1-.955l-.133,2.225a7.743,7.743,0,0,0,3.716.742c2.408,0,4.718-1.323,4.718-4.214C585.754,423.607,579.9,424.4,579.9,421.647Zm18.379-9.044h-2.891l-2.363,3.818H594.8Zm3.37,12.466a6.885,6.885,0,1,1-13.764,0c0-4.112,2.758-7.084,6.894-7.084C598.886,417.985,601.644,420.957,601.644,425.068Zm-2.653,0c0-2.576-1.564-5.067-4.217-5.067-2.677,0-4.245,2.491-4.245,5.067,0,2.412,1.3,5.064,4.245,5.064C597.69,430.133,598.991,427.48,598.991,425.068Zm8.39-4.668h-.056v-2.1h-2.334V431.83h2.5v-6.153c0-3.395,1.459-5.515,3.685-5.515a3.692,3.692,0,0,1,1.379.238v-2.229a7.12,7.12,0,0,0-1.649-.186A4.111,4.111,0,0,0,607.381,420.4Zm8.092-5.117h2.811v-2.814h-2.811Zm.158,16.546h2.5V418.3h-2.5Zm19.921-6.761a6.885,6.885,0,1,1-13.764,0c0-4.112,2.761-7.084,6.9-7.084C632.8,417.985,635.552,420.957,635.552,425.068Zm-2.653,0c0-2.576-1.564-5.067-4.214-5.067-2.677,0-4.245,2.491-4.245,5.067,0,2.412,1.3,5.064,4.245,5.064C631.6,430.133,632.9,427.48,632.9,425.068Zm7.438-3.421c0-1.117,1.109-1.645,2.379-1.645a7.241,7.241,0,0,1,2.629.689l.213-2.177a10.452,10.452,0,0,0-3.1-.528c-2.677,0-4.77,1.354-4.77,4.164,0,3.79,5.858,3.58,5.858,6.044,0,1.459-1.406,1.939-2.548,1.939a6.705,6.705,0,0,1-3.1-.955l-.133,2.225a7.743,7.743,0,0,0,3.716.742c2.408,0,4.718-1.323,4.718-4.214C646.2,423.607,640.336,424.4,640.336,421.647Z" transform="translate(-62.195 -73.272)" fill="#ffffff"/>
  </g>
</svg>
