<svg xmlns="http://www.w3.org/2000/svg" width="536" height="149.895" viewBox="0 0 536 149.895">
    <g id="Grupo_193" data-name="Grupo 193" transform="translate(1533.451 -616.935)">
        <g id="Grupo_190" data-name="Grupo 190" transform="translate(-1383.32 616.935)">
            <path id="Caminho_187" data-name="Caminho 187" d="M2686.158,147.12l34.115,55.77V91.349Z" transform="translate(-2686.158 -91.349)" fill="#d01b8b"/>
        </g>
        <g id="Grupo_191" data-name="Grupo 191" transform="translate(-1530.362 616.935)" fill="#000000">
            <g id="Grupo_23" data-name="Grupo 23" transform="translate(0 127.784)">
                <path id="Caminho_188" data-name="Caminho 188" d="M2284.973,457.171a3.2,3.2,0,0,0-2.815-1.415c-1.524,0-3.105.8-3.105,2.63,0,3.927,7.46,1.852,7.46,7.094,0,2.65-2.486,4.208-4.786,4.208a5.477,5.477,0,0,1-4.583-2.152l1.334-.975a3.668,3.668,0,0,0,3.312,1.772c1.455,0,3.121-.943,3.121-2.649,0-4.11-7.463-1.832-7.463-7.157,0-2.813,2.345-4.127,4.71-4.127a4.993,4.993,0,0,1,4.108,1.772Z" transform="translate(-2277.143 -451.665)"/>
                <path id="Caminho_189" data-name="Caminho 189" d="M2308.956,469.983h-1.728l6.33-14.551H2315l6.331,14.551H2319.6l-1.6-3.822h-7.437Zm2.158-5.179h6.312l-3.151-7.652Z" transform="translate(-2296.413 -452.328)"/>
                <path id="Caminho_190" data-name="Caminho 190" d="M2354.584,468.626h6.784v1.357h-8.262V455.432h1.478Z" transform="translate(-2325.798 -452.328)"/>
                <path id="Caminho_191" data-name="Caminho 191" d="M2379.1,464.452h-1.727l6.33-14.551h1.434l6.331,14.551h-1.724l-1.6-3.821H2380.7Zm1.991-15.434c.186-1.072.662-2.138,1.891-2.138a3.617,3.617,0,0,1,1.5.468,3.788,3.788,0,0,0,1.379.475c.616,0,.882-.512,1-1.026h.886c-.185,1.066-.662,2.138-1.889,2.138a3.784,3.784,0,0,1-1.5-.477,3.309,3.309,0,0,0-1.379-.469c-.619,0-.883.515-1,1.029Zm.164,10.256h6.311l-3.143-7.652Z" transform="translate(-2341.341 -446.797)"/>
                <path id="Caminho_192" data-name="Caminho 192" d="M2428.085,469.687a7.645,7.645,0,1,1,7.582-7.64A7.4,7.4,0,0,1,2428.085,469.687Zm0-13.931c-3.745,0-5.984,2.939-5.984,6.291s2.239,6.285,5.984,6.285,5.979-2.941,5.979-6.285S2431.823,455.755,2428.085,455.755Z" transform="translate(-2368.963 -451.665)"/>
                <path id="Caminho_193" data-name="Caminho 193" d="M2490.62,469.983h-1.478V455.432h1.478Z" transform="translate(-2412.928 -452.328)"/>
                <path id="Caminho_194" data-name="Caminho 194" d="M2515.912,467.759h.038V455.432h1.481v14.551h-1.849l-8.671-12.459h-.044v12.459h-1.478V455.432h1.846Z" transform="translate(-2423.334 -452.328)"/>
                <path id="Caminho_195" data-name="Caminho 195" d="M2552.7,469.983h-1.478v-13.2h-4.87v-1.355h11.224v1.355H2552.7Z" transform="translate(-2449.573 -452.328)"/>
                <path id="Caminho_196" data-name="Caminho 196" d="M2586.5,468.626h7.787v1.357h-9.268V455.432h9.019v1.355H2586.5v4.953h7.047V463.1H2586.5Z" transform="translate(-2474.34 -452.328)"/>
                <path id="Caminho_197" data-name="Caminho 197" d="M2621.566,469.983h-1.477V455.432h4.479c2.961,0,4.792,1.269,4.792,3.887a3.7,3.7,0,0,1-3.721,3.759l4.191,6.906h-1.807l-3.984-6.763h-2.473Zm0-8.12h2.636c2.647,0,3.555-1.152,3.555-2.544s-.909-2.532-3.555-2.532h-2.636Z" transform="translate(-2496.8 -452.328)"/>
                <path id="Caminho_198" data-name="Caminho 198" d="M2665.678,467.759h.037V455.432h1.484v14.551h-1.855l-8.668-12.459h-.044v12.459h-1.48V455.432H2657Z" transform="translate(-2519.257 -452.328)"/>
                <path id="Caminho_199" data-name="Caminho 199" d="M2697.052,469.983h-1.727l6.328-14.551h1.44l6.331,14.551H2707.7l-1.606-3.822h-7.44Zm2.156-5.179h6.31l-3.144-7.652Z" transform="translate(-2544.988 -452.328)"/>
                <path id="Caminho_200" data-name="Caminho 200" d="M2751.425,467.014a6.41,6.41,0,0,1-5.384,2.673,7.645,7.645,0,0,1,0-15.289,6.312,6.312,0,0,1,5.035,2.3l-1.3.963a4.8,4.8,0,0,0-3.739-1.91c-3.744,0-5.983,2.939-5.983,6.291s2.24,6.285,5.983,6.285a4.662,4.662,0,0,0,4.168-2.175Z" transform="translate(-2572.615 -451.665)"/>
                <path id="Caminho_201" data-name="Caminho 201" d="M2784.1,469.983h-1.476V455.432h1.476Z" transform="translate(-2600.902 -452.328)"/>
                <path id="Caminho_202" data-name="Caminho 202" d="M2803.7,469.687a7.645,7.645,0,1,1,7.584-7.64A7.4,7.4,0,0,1,2803.7,469.687Zm0-13.931c-3.744,0-5.983,2.939-5.983,6.291s2.24,6.285,5.983,6.285,5.977-2.941,5.977-6.285S2807.439,455.755,2803.7,455.755Z" transform="translate(-2609.544 -451.665)"/>
                <path id="Caminho_203" data-name="Caminho 203" d="M2858.242,467.759h.038V455.432h1.478v14.551h-1.846l-8.677-12.459h-.038v12.459h-1.478V455.432h1.848Z" transform="translate(-2642.596 -452.328)"/>
                <path id="Caminho_204" data-name="Caminho 204" d="M2889.6,469.983h-1.726l6.334-14.551h1.438l6.333,14.551h-1.731l-1.6-3.822H2891.2Zm2.161-5.179h6.311l-3.146-7.652Z" transform="translate(-2668.315 -452.328)"/>
                <path id="Caminho_205" data-name="Caminho 205" d="M2935.231,468.626h6.787v1.357h-8.262V455.432h1.475Z" transform="translate(-2697.703 -452.328)"/>
                <path id="Caminho_206" data-name="Caminho 206" d="M2979.977,455.432h4.829c3.641,0,7.644,2.424,7.644,7.277s-4,7.274-7.644,7.274h-4.829Zm1.48,13.194h2.877c4.436,0,6.515-2.918,6.515-5.917s-2.079-5.922-6.515-5.922h-2.877Z" transform="translate(-2727.308 -452.328)"/>
                <path id="Caminho_207" data-name="Caminho 207" d="M3028.921,469.687a7.645,7.645,0,1,1,7.583-7.64A7.4,7.4,0,0,1,3028.921,469.687Zm0-13.931c-3.74,0-5.98,2.939-5.98,6.291s2.24,6.285,5.98,6.285,5.982-2.941,5.982-6.285S3032.66,455.755,3028.921,455.755Z" transform="translate(-2753.798 -451.665)"/>
                <path id="Caminho_208" data-name="Caminho 208" d="M3100.214,467.014a6.406,6.406,0,0,1-5.383,2.673,7.645,7.645,0,0,1,0-15.289,6.311,6.311,0,0,1,5.032,2.3l-1.295.963a4.809,4.809,0,0,0-3.738-1.91c-3.747,0-5.983,2.939-5.983,6.291s2.237,6.285,5.983,6.285a4.659,4.659,0,0,0,4.165-2.175Z" transform="translate(-2796.013 -451.665)"/>
                <path id="Caminho_209" data-name="Caminho 209" d="M3136.243,469.687a7.645,7.645,0,1,1,7.584-7.64A7.4,7.4,0,0,1,3136.243,469.687Zm0-13.931c-3.742,0-5.979,2.939-5.979,6.291s2.237,6.285,5.979,6.285,5.979-2.941,5.979-6.285S3139.984,455.755,3136.243,455.755Z" transform="translate(-2822.54 -451.665)"/>
                <path id="Caminho_210" data-name="Caminho 210" d="M3190.211,464.558c0,2.427-.965,5.791-5.321,5.791s-5.325-3.364-5.325-5.791v-9.126h1.481v8.961c0,4.19,2.735,4.6,3.844,4.6s3.844-.412,3.844-4.6v-8.961h1.476Z" transform="translate(-2855.144 -452.328)"/>
                <path id="Caminho_211" data-name="Caminho 211" d="M3222.133,469.983h-1.476V455.432h4.476c2.957,0,4.786,1.269,4.786,3.887a3.693,3.693,0,0,1-3.717,3.759l4.191,6.906h-1.806l-3.989-6.763h-2.465Zm0-8.12h2.63c2.652,0,3.557-1.152,3.557-2.544s-.9-2.532-3.557-2.532h-2.63Z" transform="translate(-2881.463 -452.328)"/>
                <path id="Caminho_212" data-name="Caminho 212" d="M3260.555,469.687a7.645,7.645,0,1,1,7.58-7.64A7.4,7.4,0,0,1,3260.555,469.687Zm0-13.931c-3.745,0-5.986,2.939-5.986,6.291s2.241,6.285,5.986,6.285,5.978-2.941,5.978-6.285S3264.293,455.755,3260.555,455.755Z" transform="translate(-2902.161 -451.665)"/>
                <path id="Caminho_213" data-name="Caminho 213" d="M3323.083,468.626h7.789v1.357H3321.6V455.432h9.024v1.355h-7.54v4.953h7.05V463.1h-7.05Z" transform="translate(-2946.116 -452.328)"/>
                <path id="Caminho_214" data-name="Caminho 214" d="M3373.154,455.432h4.83c3.638,0,7.644,2.424,7.644,7.277s-4.006,7.274-7.644,7.274h-4.83Zm1.482,13.194h2.874c4.44,0,6.517-2.918,6.517-5.917s-2.076-5.922-6.517-5.922h-2.874Z" transform="translate(-2979.137 -452.328)"/>
                <path id="Caminho_215" data-name="Caminho 215" d="M3422.1,469.687a7.645,7.645,0,1,1,7.583-7.64A7.4,7.4,0,0,1,3422.1,469.687Zm0-13.931c-3.737,0-5.977,2.939-5.977,6.291s2.24,6.285,5.977,6.285,5.981-2.941,5.981-6.285S3425.837,455.755,3422.1,455.755Z" transform="translate(-3005.628 -451.665)"/>
                <path id="Caminho_216" data-name="Caminho 216" d="M3493.392,467.014a6.415,6.415,0,0,1-5.385,2.673,7.645,7.645,0,0,1,0-15.289,6.316,6.316,0,0,1,5.036,2.3l-1.294.963a4.816,4.816,0,0,0-3.741-1.91c-3.742,0-5.982,2.939-5.982,6.291s2.241,6.285,5.982,6.285a4.669,4.669,0,0,0,4.17-2.175Z" transform="translate(-3047.843 -451.665)"/>
                <path id="Caminho_217" data-name="Caminho 217" d="M3520.817,469.983h-1.726l6.332-14.551h1.437l6.33,14.551h-1.727l-1.6-3.822h-7.439Zm2.158-5.179h6.31l-3.145-7.652Z" transform="translate(-3072.61 -452.328)"/>
                <path id="Caminho_218" data-name="Caminho 218" d="M3566.453,468.626h6.785v1.357h-8.259V455.432h1.474Z" transform="translate(-3102.001 -452.328)"/>
                <path id="Caminho_219" data-name="Caminho 219" d="M3604.941,467.014a6.418,6.418,0,0,1-5.386,2.673,1.564,1.564,0,0,1-.431-.04l-.678.9.037.02a2.058,2.058,0,0,1,.745-.14,1.51,1.51,0,0,1,1.583,1.538c0,1.281-1.257,1.809-2.366,1.809a4.278,4.278,0,0,1-1.991-.489l.323-.743a3.324,3.324,0,0,0,1.522.372c.6,0,1.273-.246,1.273-.926,0-.252-.163-.823-1.009-.823a2.181,2.181,0,0,0-.94.226l-.37-.346,1.069-1.464a7.648,7.648,0,0,1,1.232-15.186,6.3,6.3,0,0,1,5.033,2.3l-1.294.963a4.8,4.8,0,0,0-3.739-1.91c-3.74,0-5.978,2.939-5.978,6.291s2.238,6.285,5.978,6.285a4.674,4.674,0,0,0,4.174-2.175Z" transform="translate(-3119.289 -451.665)"/>
                <path id="Caminho_220" data-name="Caminho 220" d="M3632.366,469.983h-1.729l6.332-14.551h1.438l6.33,14.551h-1.726l-1.6-3.822h-7.443Zm2.161-5.179h6.306l-3.147-7.652Z" transform="translate(-3144.055 -452.328)"/>
                <path id="Caminho_221" data-name="Caminho 221" d="M3675.949,455.432h4.826c3.642,0,7.65,2.424,7.65,7.277s-4.009,7.274-7.65,7.274h-4.826Zm1.479,13.194h2.875c4.442,0,6.516-2.918,6.516-5.917s-2.074-5.922-6.516-5.922h-2.875Z" transform="translate(-3173.077 -452.328)"/>
                <path id="Caminho_222" data-name="Caminho 222" d="M3724.9,469.687a7.645,7.645,0,1,1,7.583-7.64A7.4,7.4,0,0,1,3724.9,469.687Zm0-13.931c-3.744,0-5.982,2.939-5.982,6.291s2.238,6.285,5.982,6.285,5.978-2.941,5.978-6.285S3728.641,455.755,3724.9,455.755Z" transform="translate(-3199.575 -451.665)"/>
            </g>
            <g id="Grupo_24" data-name="Grupo 24" transform="translate(216.277)">
                <path id="Caminho_223" data-name="Caminho 223" d="M2888.038,179.1c5.161,8.7,13.57,13.119,23.892,13.119,13.125,0,23.448-7.963,23.448-20.494,0-29.206-53.831-12.1-53.831-51.768,0-18.582,15.933-28.608,33.482-28.608,11.353,0,21.381,3.836,28.459,13.128l-8.406,6.042c-4.868-6.786-11.354-10.321-20.348-10.321-12.537,0-23.452,6.488-23.452,19.759,0,31.412,53.83,12.536,53.83,51.768,0,18.876-15.484,29.343-32.444,29.343-13.721,0-25.81-4.424-33.922-15.78Z" transform="translate(-2878.746 -91.349)"/>
                <path id="Caminho_224" data-name="Caminho 224" d="M3124.873,98.72h9.733V203.132h-9.733Z" transform="translate(-3036.39 -96.07)"/>
                <path id="Caminho_225" data-name="Caminho 225" d="M3305.409,182.044c-9.884,13.571-23.452,19.024-38.788,19.024-31.854,0-53.978-23.009-53.978-54.858s22.125-54.861,53.978-54.861c14.158,0,26.84,4.719,35.984,16.37l-7.966,6.64c-6.485-9.735-17.551-14.16-28.018-14.16-27.282,0-44.245,20.056-44.245,46.012s16.963,46.009,44.245,46.009c10.467,0,23.446-5.01,30.825-16.223Z" transform="translate(-3092.607 -91.349)"/>
                <path id="Caminho_226" data-name="Caminho 226" d="M3594.188,182.044c-9.879,13.571-23.446,19.024-38.785,19.024-31.855,0-53.974-23.009-53.974-54.858s22.118-54.861,53.974-54.861c14.155,0,26.844,4.719,35.986,16.37l-7.964,6.64c-6.49-9.735-17.553-14.16-28.022-14.16-27.286,0-44.242,20.056-44.242,46.012s16.956,46.009,44.242,46.009c10.469,0,23.447-5.01,30.82-16.223Z" transform="translate(-3277.574 -91.349)"/>
            </g>
        </g>
        <g id="Grupo_192" data-name="Grupo 192" transform="translate(-1533.451 616.935)">
            <path id="Caminho_227" data-name="Caminho 227" d="M2448.6,91.349,2268.549,203H2380.31Z" transform="translate(-2268.549 -91.349)" fill="#29017c"/>
        </g>
    </g>
</svg>
